<svg width="512" height="512" viewBox="0 0 512 512" xmlns="http://www.w3.org/2000/svg"><defs><linearGradient id="blueGrad" x1="0%" y1="0%" x2="100%" y2="100%"><stop offset="0%" style="stop-color:#00E5FF;stop-opacity:1" /><stop offset="100%" style="stop-color:#0066FF;stop-opacity:1" /></linearGradient><linearGradient id="silverGrad" x1="0%" y1="0%" x2="0%" y2="100%"><stop offset="0%" style="stop-color:#F5F7FA;stop-opacity:1" /><stop offset="100%" style="stop-color:#8A8F98;stop-opacity:1" /></linearGradient></defs><path d="M320 80 C200 80 120 160 120 256 C120 352 200 432 320 432 L300 380 C230 380 180 330 180 256 C180 182 230 132 300 132 Z" fill="url(#blueGrad)" /><path d="M120 140 L80 200 L120 220 Z" fill="url(#silverGrad)" /><path d="M110 200 L70 260 L120 270 Z" fill="url(#silverGrad)" /><path d="M120 260 L90 330 L140 320 Z" fill="url(#silverGrad)" /><line x1="250" y1="190" x2="250" y2="280" stroke="#00E5FF" stroke-width="6" /><circle cx="250" cy="180" r="8" fill="#00E5FF" /><circle cx="250" cy="290" r="8" fill="#00E5FF" /><text x="256" y="500" fill="#0B1220" font-size="64" font-family="Arial Black" text-anchor="middle">CLAWDAO</text></svg>